<svg width="14" height="15" viewBox="0 0 14 15" fill="none" xmlns="http://www.w3.org/2000/svg">
<path d="M6.41675 2.8335H2.33341C2.024 2.8335 1.72725 2.95641 1.50846 3.1752C1.28966 3.394 1.16675 3.69074 1.16675 4.00016V12.1668C1.16675 12.4762 1.28966 12.773 1.50846 12.9918C1.72725 13.2106 2.024 13.3335 2.33341 13.3335H10.5001C10.8095 13.3335 11.1062 13.2106 11.325 12.9918C11.5438 12.773 11.6667 12.4762 11.6667 12.1668V8.0835" stroke="black" stroke-linecap="round" stroke-linejoin="round"/>
<path d="M10.7917 1.95814C11.0238 1.72608 11.3386 1.5957 11.6667 1.5957C11.9949 1.5957 12.3097 1.72608 12.5417 1.95814C12.7738 2.1902 12.9042 2.50495 12.9042 2.83314C12.9042 3.16133 12.7738 3.47608 12.5417 3.70814L7.00008 9.24981L4.66675 9.83314L5.25008 7.49981L10.7917 1.95814Z" stroke="black" stroke-linecap="round" stroke-linejoin="round"/>
</svg>
