<svg width="33" height="32" viewBox="0 0 33 32" fill="none" xmlns="http://www.w3.org/2000/svg">
<path d="M16.5 0C20.7435 0 24.8131 1.68571 27.8137 4.68629C30.8143 7.68687 32.5 11.7565 32.5 16C32.5 20.2435 30.8143 24.3131 27.8137 27.3137C24.8131 30.3143 20.7435 32 16.5 32C12.2565 32 8.18687 30.3143 5.18629 27.3137C2.18571 24.3131 0.5 20.2435 0.5 16C0.5 11.7565 2.18571 7.68687 5.18629 4.68629C8.18687 1.68571 12.2565 0 16.5 0ZM16.5 29.7143C20.1373 29.7143 23.6255 28.2694 26.1975 25.6975C28.7694 23.1255 30.2143 19.6373 30.2143 16C30.2143 12.3627 28.7694 8.87446 26.1975 6.30254C23.6255 3.73061 20.1373 2.28571 16.5 2.28571C12.8627 2.28571 9.37446 3.73061 6.80254 6.30254C4.23061 8.87446 2.78571 12.3627 2.78571 16C2.78571 19.6373 4.23061 23.1255 6.80254 25.6975C9.37446 28.2694 12.8627 29.7143 16.5 29.7143ZM18.2143 23.4286C18.2143 23.8832 18.0337 24.3193 17.7122 24.6408C17.3907 24.9622 16.9547 25.1429 16.5 25.1429C16.0453 25.1429 15.6093 24.9622 15.2878 24.6408C14.9663 24.3193 14.7857 23.8832 14.7857 23.4286C14.7857 22.9739 14.9663 22.5379 15.2878 22.2164C15.6093 21.8949 16.0453 21.7143 16.5 21.7143C16.9547 21.7143 17.3907 21.8949 17.7122 22.2164C18.0337 22.5379 18.2143 22.9739 18.2143 23.4286ZM16.5 6.85714C16.8031 6.85714 17.0938 6.97755 17.3081 7.19188C17.5224 7.40621 17.6429 7.6969 17.6429 8V18.2857C17.6429 18.5888 17.5224 18.8795 17.3081 19.0938C17.0938 19.3082 16.8031 19.4286 16.5 19.4286C16.1969 19.4286 15.9062 19.3082 15.6919 19.0938C15.4776 18.8795 15.3571 18.5888 15.3571 18.2857V8C15.3571 7.6969 15.4776 7.40621 15.6919 7.19188C15.9062 6.97755 16.1969 6.85714 16.5 6.85714Z" fill="#B50404"/>
</svg>
